<svg xmlns="http://www.w3.org/2000/svg" xmlns:xlink="http://www.w3.org/1999/xlink" viewBox="0 0 1098 1098"><defs><style>.cls-1,.cls-10,.cls-12,.cls-13,.cls-14,.cls-15,.cls-16,.cls-2,.cls-4,.cls-6{fill:none;}.cls-1{clip-rule:evenodd;}.cls-2,.cls-3,.cls-5,.cls-8{fill-rule:evenodd;}.cls-3{fill:#28aee4;}.cls-10,.cls-13,.cls-4,.cls-6{stroke:#1870b9;}.cls-4{stroke-miterlimit:10;stroke-width:18.52px;}.cls-5,.cls-9{fill:#fff;}.cls-10,.cls-12,.cls-13,.cls-14,.cls-15,.cls-16,.cls-6{stroke-miterlimit:8;}.cls-14,.cls-6{stroke-width:11.68px;}.cls-7{clip-path:url(#clip-path);}.cls-11,.cls-8{fill:#1870b9;}.cls-10,.cls-12{stroke-width:3.74px;}.cls-12,.cls-14,.cls-15,.cls-16{stroke:#fff;}.cls-13,.cls-16{stroke-width:8.88px;}.cls-15{stroke-width:6.07px;}</style><clipPath id="clip-path"><polygon class="cls-1" points="184.34 913.66 913.66 913.66 913.66 184.34 184.34 184.34 184.34 913.66 184.34 913.66"/></clipPath></defs><g id="B-transpaprent_S-colored" data-name="B-transpaprent S-colored"><path class="cls-3" d="M410.32,72.39C488-5.3,614-5.3,691.68,72.39l337.18,337.18c77.7,77.7,77.7,203.67,0,281.37L691.68,1028.12c-77.69,77.69-203.67,77.69-281.36,0L73.14,690.94c-77.7-77.7-77.7-203.67,0-281.37Z"/><path class="cls-4" d="M410.32,72.39C488-5.3,614-5.3,691.68,72.39l337.18,337.18c77.7,77.7,77.7,203.67,0,281.37L691.68,1028.12c-77.69,77.69-203.67,77.69-281.36,0L73.14,690.94c-77.7-77.7-77.7-203.67,0-281.37Z"/><path class="cls-5" d="M190.18,549c0-198.17,160.65-358.82,358.82-358.82S907.82,350.83,907.82,549,747.17,907.82,549,907.82,190.18,747.17,190.18,549Z"/><path class="cls-6" d="M190.18,549c0-198.17,160.65-358.82,358.82-358.82S907.82,350.83,907.82,549,747.17,907.82,549,907.82,190.18,747.17,190.18,549Z"/><g class="cls-7"><path class="cls-8" d="M259.33,549C259.33,385.66,389,253.25,549,253.25S838.67,385.66,838.67,549,709,844.75,549,844.75,259.33,712.34,259.33,549Z"/><path class="cls-6" d="M259.33,549C259.33,385.66,389,253.25,549,253.25S838.67,385.66,838.67,549,709,844.75,549,844.75,259.33,712.34,259.33,549Z"/><g class="cls-7"><path class="cls-9" d="M410,318H582a27.52,27.52,0,0,1,27.52,27.52V687.1A27.53,27.53,0,0,1,582,714.63H410a27.52,27.52,0,0,1-27.52-27.52V345.49A27.53,27.53,0,0,1,410,318Z"/><path class="cls-10" d="M410,318H582a27.52,27.52,0,0,1,27.52,27.52V687.1A27.53,27.53,0,0,1,582,714.63H410a27.52,27.52,0,0,1-27.52-27.52V345.49A27.53,27.53,0,0,1,410,318Z"/><g class="cls-7"><rect class="cls-11" x="408.14" y="353" width="175.67" height="108.39" rx="24.55"/><rect class="cls-12" x="408.14" y="353" width="175.67" height="108.39" rx="24.55"/><g class="cls-7"><polygon class="cls-5" points="360.25 692.43 630.76 692.43 630.76 751.77 360.25 751.77 360.25 692.43 360.25 692.43"/><polygon class="cls-13" points="360.25 692.43 630.76 692.43 630.76 751.77 360.25 751.77 360.25 692.43 360.25 692.43"/><g class="cls-7"><line class="cls-14" x1="641.51" y1="385.01" x2="643.33" y2="574.13"/><g class="cls-7"><path class="cls-14" d="M601.8,354.19c38.34-3,39.8,3.76,40.12,47.17"/><g class="cls-7"><line class="cls-14" x1="722.34" y1="453.22" x2="722.34" y2="559.85"/><g class="cls-7"><path class="cls-14" d="M726.23,452.34c-8,5.12-17.53,1.27-33-6.11-1.14-18.52-1.44-26.64-1.31-44.19,11.75-4.91,22.89-4.93,33.53-1.19l.78,51.49Z"/><g class="cls-7"><line class="cls-14" x1="724.66" y1="409.3" x2="708.32" y2="426.54"/><g class="cls-7"><path class="cls-14" d="M693.37,337.55c3.66,3.83,18.57,11.15,26.06,22.35,2.5,15.63,2.44,5.18,2.44,39.12"/><g class="cls-7"><path class="cls-8" d="M642.91,563.25a40,40,0,0,1,40-40h0a40,40,0,0,1,39.94,40v59.8a39.94,39.94,0,0,1-39.94,40h0a39.94,39.94,0,0,1-40-40Z"/><path class="cls-14" d="M642.91,563.25a40,40,0,0,1,40-40h0a40,40,0,0,1,39.94,40v59.8a39.94,39.94,0,0,1-39.94,40h0a39.94,39.94,0,0,1-40-40Z"/><g class="cls-7"><rect class="cls-9" x="407.9" y="486.39" width="75.22" height="40.65" rx="4.35"/><rect class="cls-13" x="407.9" y="486.39" width="75.22" height="40.65" rx="4.35"/><g class="cls-7"><rect class="cls-9" x="507.89" y="486.39" width="75.22" height="40.65" rx="4.35"/><rect class="cls-13" x="507.89" y="486.39" width="75.22" height="40.65" rx="4.35"/><g class="cls-7"><path class="cls-8" d="M550.87,506.48a16.59,16.59,0,1,1,16.58,16.36,16.46,16.46,0,0,1-16.58-16.36Z"/><path class="cls-15" d="M550.87,506.48a16.59,16.59,0,1,1,16.58,16.36,16.46,16.46,0,0,1-16.58-16.36Z"/><g class="cls-7"><path class="cls-8" d="M475.65,506.48A19.39,19.39,0,1,1,495,525.64a19.27,19.27,0,0,1-19.39-19.16Z"/><path class="cls-16" d="M475.65,506.48A19.39,19.39,0,1,1,495,525.64a19.27,19.27,0,0,1-19.39-19.16Z"/><g class="cls-7"><path class="cls-8" d="M407.9,506.72a16.59,16.59,0,1,1,16.59,16.58,16.59,16.59,0,0,1-16.59-16.58Z"/><path class="cls-15" d="M407.9,506.72a16.59,16.59,0,1,1,16.59,16.58,16.59,16.59,0,0,1-16.59-16.58Z"/></g></g></g></g></g></g></g></g></g></g></g></g></g></g></g></g></g></svg>